<?xml version="1.0" encoding="iso-8859-1"?>
<!-- Generator: Adobe Illustrator 19.0.0, SVG Export Plug-In . SVG Version: 6.00 Build 0)  -->
<svg xmlns="http://www.w3.org/2000/svg" xmlns:xlink="http://www.w3.org/1999/xlink" version="1.1" id="Capa_1" x="0px" y="0px" viewBox="0 0 512 512" style="enable-background:new 0 0 512 512;" xml:space="preserve" width="512px" height="512px">
<g>
	<g>
		<path d="M166,171c-30.327,0-55,24.673-55,55c0,30.327,24.673,55,55,55c30.327,0,55-24.673,55-55C221,195.673,196.327,171,166,171z     M166,251c-13.785,0-25-11.215-25-25c0-13.785,11.215-25,25-25c13.785,0,25,11.215,25,25C191,239.785,179.785,251,166,251z" fill="#FFFFFF"/>
	</g>
</g>
<g>
	<g>
		<circle cx="166" cy="226" r="15" fill="#FFFFFF"/>
	</g>
</g>
<g>
	<g>
		<path d="M167.001,117.146c-26.671,0-51.747,10.387-70.606,29.247l21.213,21.213c13.192-13.193,30.734-20.459,49.392-20.459    s36.2,7.266,49.394,20.459l21.213-21.213C218.748,127.533,193.672,117.146,167.001,117.146z" fill="#FFFFFF"/>
	</g>
</g>
<g>
	<g>
		<path d="M383.213,0H205C114.019,0,40,74.019,40,165v171.845l60.525,110.292C122.481,487.146,164.472,512,210.109,512h163.104    L422,463.213V416.36l50-106V88.787L383.213,0z M241,376h-10.099c-32.171,0-62-17.392-77.848-45.389l-26.107,14.777    C148.107,382.775,187.941,406,230.901,406H241v76h-30.891c-34.685,0-66.597-18.889-83.283-49.295L70,329.155V165    c0-74.439,60.561-135,135-135h36V376z M442,303.64L436.17,316H404v-20h-30v50h48.019L392,409.64v41.147L360.787,482H271v-76h20v20    h30v-20h20v20h30v-20h17v-30h-17v-20h-30v20h-20v-20h-30v20h-20v-42h69v-53h61V171h-19v-18h60V303.64z M321,251v-50h50v50H321z     M442,123h-38V70h-67V44h-30v56h67v23h-22v48h-61v110h19v23h-39V159h60v-51h-30v21h-30V30h99.787L442,101.213V123z" fill="#FFFFFF"/>
	</g>
</g>
<g>
	<g>
		<circle cx="346" cy="226" r="15" fill="#FFFFFF"/>
	</g>
</g>
<g>
</g>
<g>
</g>
<g>
</g>
<g>
</g>
<g>
</g>
<g>
</g>
<g>
</g>
<g>
</g>
<g>
</g>
<g>
</g>
<g>
</g>
<g>
</g>
<g>
</g>
<g>
</g>
<g>
</g>
</svg>
